<?xml version="1.0" encoding="UTF-8" standalone="no"?>
<svg
   xmlns:dc="http://purl.org/dc/elements/1.1/"
   xmlns:cc="http://creativecommons.org/ns#"
   xmlns:rdf="http://www.w3.org/1999/02/22-rdf-syntax-ns#"
   xmlns:svg="http://www.w3.org/2000/svg"
   xmlns="http://www.w3.org/2000/svg"
   id="svg8"
   version="1.1"
   viewBox="0 0 8.4666665 8.4666669"
   height="32"
   width="32">
  <defs
     id="defs2" />
  <metadata
     id="metadata5">
    <rdf:RDF>
      <cc:Work
         rdf:about="">
        <dc:format>image/svg+xml</dc:format>
        <dc:type
           rdf:resource="http://purl.org/dc/dcmitype/StillImage" />
        <dc:title></dc:title>
      </cc:Work>
    </rdf:RDF>
  </metadata>
  <g
     transform="translate(0,-288.53332)"
     id="layer1">
    <g
       id="text821-5"
       style="font-style:normal;font-variant:normal;font-weight:normal;font-stretch:normal;font-size:9.8777771px;line-height:1.25;font-family:'Radio Ranch NF';-inkscape-font-specification:'Radio Ranch NF, Normal';font-variant-ligatures:normal;font-variant-caps:normal;font-variant-numeric:normal;font-feature-settings:normal;text-align:start;letter-spacing:0px;word-spacing:0px;writing-mode:lr-tb;text-anchor:start;fill:#000000;fill-opacity:1;stroke:#ffffff;stroke-width:0.80000001;stroke-miterlimit:4;stroke-dasharray:none;stroke-opacity:1"
       aria-label="A">
      <path
         id="path873"
         style="font-style:normal;font-variant:normal;font-weight:normal;font-stretch:normal;font-size:9.8777771px;font-family:'Radio Ranch NF';-inkscape-font-specification:'Radio Ranch NF, Normal';font-variant-ligatures:normal;font-variant-caps:normal;font-variant-numeric:normal;font-feature-settings:normal;text-align:start;writing-mode:lr-tb;text-anchor:start;stroke:#ffffff;stroke-width:0.80000001;stroke-miterlimit:4;stroke-dasharray:none;stroke-opacity:1"
         d="m 4.606761,293.80961 v -4.54377 q -0.039511,-0.01 -0.1086555,-0.01 H 4.0733611 q -0.019756,0 -0.079022,0.01 -0.049389,0 -0.079022,0 v 4.54377 z m 1.4125222,2.62749 H 4.4882277 v -0.19755 H 4.606761 v -2.23238 H 3.9153166 v 2.23238 h 0.1382889 v 0.19755 H 2.5324278 v -0.19755 h 0.1481667 v -5.7785 q 0,-0.58279 0.4049889,-0.98778 0.4148666,-0.41487 0.9877777,-0.41487 h 0.4247444 q 0.5729111,0 0.9778999,0.41487 0.4148666,0.40499 0.4148666,0.98778 v 5.7785 h 0.1284112 z" />
    </g>
    <g
       id="text821"
       style="font-style:normal;font-variant:normal;font-weight:normal;font-stretch:normal;font-size:9.87777805px;line-height:1.25;font-family:'Radio Ranch NF';-inkscape-font-specification:'Radio Ranch NF, Normal';font-variant-ligatures:normal;font-variant-caps:normal;font-variant-numeric:normal;font-feature-settings:normal;text-align:start;letter-spacing:0px;word-spacing:0px;writing-mode:lr-tb;text-anchor:start;fill:#000000;fill-opacity:1;stroke:none;stroke-width:0.26458332"
       aria-label="A">
      <path
         id="path870"
         style="font-style:normal;font-variant:normal;font-weight:normal;font-stretch:normal;font-size:9.87777805px;font-family:'Radio Ranch NF';-inkscape-font-specification:'Radio Ranch NF, Normal';font-variant-ligatures:normal;font-variant-caps:normal;font-variant-numeric:normal;font-feature-settings:normal;text-align:start;writing-mode:lr-tb;text-anchor:start;stroke-width:0.26458332"
         d="m 4.63058,293.81734 v -4.54378 q -0.039511,-0.01 -0.1086556,-0.01 H 4.09718 q -0.019756,0 -0.079022,0.01 -0.049389,0 -0.079022,0 v 4.54378 z m 1.4125222,2.62748 H 4.5120466 v -0.19755 H 4.63058 v -2.23238 H 3.9391355 v 2.23238 h 0.1382889 v 0.19755 H 2.5562466 v -0.19755 h 0.1481667 v -5.7785 q 0,-0.58279 0.4049889,-0.98778 0.4148666,-0.41487 0.9877778,-0.41487 h 0.4247444 q 0.5729112,0 0.9779001,0.41487 0.4148666,0.40499 0.4148666,0.98778 v 5.7785 h 0.1284111 z" />
    </g>
  </g>
</svg>
